<mxfile host="app.diagrams.net" agent="Mozilla/5.0 (X11; Linux x86_64) AppleWebKit/537.36 (KHTML, like Gecko) Chrome/131.0.0.0 Safari/537.36 Edg/131.0.0.0" version="25.0.3">
  <diagram name="Trang-1" id="zjt-jPT9IUWbfWVk4MiD">
    <mxGraphModel dx="1493" dy="1043" grid="1" gridSize="10" guides="0" tooltips="1" connect="1" arrows="1" fold="1" page="1" pageScale="1" pageWidth="2000" pageHeight="1000" math="0" shadow="0">
      <root>
        <mxCell id="0" />
        <mxCell id="1" parent="0" />
        <mxCell id="s93bzkk8fJkEyXmZJDAm-113" value="" style="group" parent="1" vertex="1" connectable="0">
          <mxGeometry x="260" y="90" width="1490" height="850" as="geometry" />
        </mxCell>
        <mxCell id="s93bzkk8fJkEyXmZJDAm-8" style="edgeStyle=orthogonalEdgeStyle;rounded=0;orthogonalLoop=1;jettySize=auto;html=1;exitX=0.5;exitY=0;exitDx=0;exitDy=0;entryX=0;entryY=0.5;entryDx=0;entryDy=0;shadow=0;endSize=14;endArrow=ERmany;endFill=0;" parent="s93bzkk8fJkEyXmZJDAm-113" source="s93bzkk8fJkEyXmZJDAm-7" target="s93bzkk8fJkEyXmZJDAm-3" edge="1">
          <mxGeometry relative="1" as="geometry" />
        </mxCell>
        <mxCell id="s93bzkk8fJkEyXmZJDAm-13" style="edgeStyle=orthogonalEdgeStyle;rounded=0;orthogonalLoop=1;jettySize=auto;html=1;exitX=0.5;exitY=1;exitDx=0;exitDy=0;entryX=0.5;entryY=0;entryDx=0;entryDy=0;shadow=0;endSize=14;endArrow=ERone;endFill=0;" parent="s93bzkk8fJkEyXmZJDAm-113" source="s93bzkk8fJkEyXmZJDAm-7" target="s93bzkk8fJkEyXmZJDAm-4" edge="1">
          <mxGeometry relative="1" as="geometry" />
        </mxCell>
        <mxCell id="s93bzkk8fJkEyXmZJDAm-19" style="edgeStyle=orthogonalEdgeStyle;rounded=0;orthogonalLoop=1;jettySize=auto;html=1;exitX=0.5;exitY=0;exitDx=0;exitDy=0;entryX=0.75;entryY=1;entryDx=0;entryDy=0;shadow=0;endSize=14;endArrow=ERmany;endFill=0;" parent="s93bzkk8fJkEyXmZJDAm-113" source="s93bzkk8fJkEyXmZJDAm-15" target="s93bzkk8fJkEyXmZJDAm-3" edge="1">
          <mxGeometry relative="1" as="geometry" />
        </mxCell>
        <mxCell id="s93bzkk8fJkEyXmZJDAm-22" style="edgeStyle=orthogonalEdgeStyle;rounded=0;orthogonalLoop=1;jettySize=auto;html=1;exitX=0.5;exitY=1;exitDx=0;exitDy=0;entryX=0.5;entryY=0;entryDx=0;entryDy=0;shadow=0;endSize=14;endArrow=ERone;endFill=0;" parent="s93bzkk8fJkEyXmZJDAm-113" source="s93bzkk8fJkEyXmZJDAm-15" target="s93bzkk8fJkEyXmZJDAm-6" edge="1">
          <mxGeometry relative="1" as="geometry" />
        </mxCell>
        <mxCell id="s93bzkk8fJkEyXmZJDAm-23" style="edgeStyle=orthogonalEdgeStyle;rounded=0;orthogonalLoop=1;jettySize=auto;html=1;exitX=0.5;exitY=1;exitDx=0;exitDy=0;entryX=0.5;entryY=0;entryDx=0;entryDy=0;endArrow=ERone;endFill=0;shadow=0;startSize=6;endSize=14;" parent="s93bzkk8fJkEyXmZJDAm-113" source="s93bzkk8fJkEyXmZJDAm-16" target="s93bzkk8fJkEyXmZJDAm-1" edge="1">
          <mxGeometry relative="1" as="geometry" />
        </mxCell>
        <mxCell id="s93bzkk8fJkEyXmZJDAm-24" style="edgeStyle=orthogonalEdgeStyle;rounded=0;orthogonalLoop=1;jettySize=auto;html=1;exitX=0.5;exitY=0;exitDx=0;exitDy=0;entryX=0.25;entryY=1;entryDx=0;entryDy=0;endArrow=ERmany;endFill=0;endSize=14;" parent="s93bzkk8fJkEyXmZJDAm-113" source="s93bzkk8fJkEyXmZJDAm-16" target="s93bzkk8fJkEyXmZJDAm-3" edge="1">
          <mxGeometry relative="1" as="geometry" />
        </mxCell>
        <mxCell id="s93bzkk8fJkEyXmZJDAm-20" style="edgeStyle=orthogonalEdgeStyle;rounded=0;orthogonalLoop=1;jettySize=auto;html=1;exitX=0.5;exitY=0;exitDx=0;exitDy=0;entryX=1;entryY=0.5;entryDx=0;entryDy=0;shadow=0;endSize=14;endArrow=ERone;endFill=0;" parent="s93bzkk8fJkEyXmZJDAm-113" source="s93bzkk8fJkEyXmZJDAm-17" target="s93bzkk8fJkEyXmZJDAm-3" edge="1">
          <mxGeometry relative="1" as="geometry" />
        </mxCell>
        <mxCell id="s93bzkk8fJkEyXmZJDAm-21" style="edgeStyle=orthogonalEdgeStyle;rounded=0;orthogonalLoop=1;jettySize=auto;html=1;exitX=0.5;exitY=1;exitDx=0;exitDy=0;entryX=0.5;entryY=0;entryDx=0;entryDy=0;shadow=0;endSize=14;endArrow=ERmany;endFill=0;" parent="s93bzkk8fJkEyXmZJDAm-113" source="s93bzkk8fJkEyXmZJDAm-17" target="s93bzkk8fJkEyXmZJDAm-5" edge="1">
          <mxGeometry relative="1" as="geometry" />
        </mxCell>
        <mxCell id="s93bzkk8fJkEyXmZJDAm-81" value="" style="endArrow=none;html=1;rounded=0;entryX=0.5;entryY=0;entryDx=0;entryDy=0;exitX=0.5;exitY=1;exitDx=0;exitDy=0;" parent="s93bzkk8fJkEyXmZJDAm-113" source="s93bzkk8fJkEyXmZJDAm-4" target="s93bzkk8fJkEyXmZJDAm-64" edge="1">
          <mxGeometry width="50" height="50" relative="1" as="geometry">
            <mxPoint x="310" y="710" as="sourcePoint" />
            <mxPoint x="230" y="830" as="targetPoint" />
          </mxGeometry>
        </mxCell>
        <mxCell id="s93bzkk8fJkEyXmZJDAm-100" value="" style="endArrow=none;html=1;rounded=0;entryX=0.5;entryY=0;entryDx=0;entryDy=0;exitX=0.25;exitY=1;exitDx=0;exitDy=0;" parent="s93bzkk8fJkEyXmZJDAm-113" source="s93bzkk8fJkEyXmZJDAm-5" target="s93bzkk8fJkEyXmZJDAm-99" edge="1">
          <mxGeometry width="50" height="50" relative="1" as="geometry">
            <mxPoint x="1150" y="640" as="sourcePoint" />
            <mxPoint x="1225" y="717" as="targetPoint" />
          </mxGeometry>
        </mxCell>
        <mxCell id="s93bzkk8fJkEyXmZJDAm-101" value="" style="endArrow=none;html=1;rounded=0;entryX=0.5;entryY=0;entryDx=0;entryDy=0;exitX=0.5;exitY=1;exitDx=0;exitDy=0;" parent="s93bzkk8fJkEyXmZJDAm-113" source="s93bzkk8fJkEyXmZJDAm-5" target="s93bzkk8fJkEyXmZJDAm-31" edge="1">
          <mxGeometry width="50" height="50" relative="1" as="geometry">
            <mxPoint x="1200" y="640" as="sourcePoint" />
            <mxPoint x="1200" y="810" as="targetPoint" />
          </mxGeometry>
        </mxCell>
        <mxCell id="s93bzkk8fJkEyXmZJDAm-102" value="" style="endArrow=none;html=1;rounded=0;entryX=0.5;entryY=0;entryDx=0;entryDy=0;exitX=0.75;exitY=1;exitDx=0;exitDy=0;" parent="s93bzkk8fJkEyXmZJDAm-113" source="s93bzkk8fJkEyXmZJDAm-5" target="s93bzkk8fJkEyXmZJDAm-95" edge="1">
          <mxGeometry width="50" height="50" relative="1" as="geometry">
            <mxPoint x="1210" y="650" as="sourcePoint" />
            <mxPoint x="1210" y="820" as="targetPoint" />
          </mxGeometry>
        </mxCell>
        <mxCell id="s93bzkk8fJkEyXmZJDAm-103" value="" style="endArrow=none;html=1;rounded=0;entryX=0;entryY=0;entryDx=0;entryDy=0;exitX=1;exitY=1;exitDx=0;exitDy=0;" parent="s93bzkk8fJkEyXmZJDAm-113" source="s93bzkk8fJkEyXmZJDAm-5" target="s93bzkk8fJkEyXmZJDAm-98" edge="1">
          <mxGeometry width="50" height="50" relative="1" as="geometry">
            <mxPoint x="1220" y="660" as="sourcePoint" />
            <mxPoint x="1220" y="830" as="targetPoint" />
          </mxGeometry>
        </mxCell>
        <mxCell id="s93bzkk8fJkEyXmZJDAm-107" value="" style="endArrow=none;html=1;rounded=0;entryX=0;entryY=0.5;entryDx=0;entryDy=0;exitX=1;exitY=0.75;exitDx=0;exitDy=0;" parent="s93bzkk8fJkEyXmZJDAm-113" source="s93bzkk8fJkEyXmZJDAm-5" target="s93bzkk8fJkEyXmZJDAm-105" edge="1">
          <mxGeometry width="50" height="50" relative="1" as="geometry">
            <mxPoint x="1290" y="640" as="sourcePoint" />
            <mxPoint x="1395" y="707" as="targetPoint" />
          </mxGeometry>
        </mxCell>
        <mxCell id="s93bzkk8fJkEyXmZJDAm-108" value="" style="endArrow=none;html=1;rounded=0;entryX=0;entryY=0.5;entryDx=0;entryDy=0;exitX=1;exitY=0.25;exitDx=0;exitDy=0;" parent="s93bzkk8fJkEyXmZJDAm-113" source="s93bzkk8fJkEyXmZJDAm-5" target="s93bzkk8fJkEyXmZJDAm-106" edge="1">
          <mxGeometry width="50" height="50" relative="1" as="geometry">
            <mxPoint x="1300" y="650" as="sourcePoint" />
            <mxPoint x="1405" y="717" as="targetPoint" />
          </mxGeometry>
        </mxCell>
        <mxCell id="s93bzkk8fJkEyXmZJDAm-85" value="" style="endArrow=none;html=1;rounded=0;entryX=0.5;entryY=0;entryDx=0;entryDy=0;exitX=0.5;exitY=1;exitDx=0;exitDy=0;" parent="s93bzkk8fJkEyXmZJDAm-113" source="s93bzkk8fJkEyXmZJDAm-6" target="s93bzkk8fJkEyXmZJDAm-30" edge="1">
          <mxGeometry width="50" height="50" relative="1" as="geometry">
            <mxPoint x="350" y="750" as="sourcePoint" />
            <mxPoint x="270" y="870" as="targetPoint" />
          </mxGeometry>
        </mxCell>
        <mxCell id="s93bzkk8fJkEyXmZJDAm-89" value="" style="endArrow=none;html=1;rounded=0;entryX=0.5;entryY=0;entryDx=0;entryDy=0;exitX=0.25;exitY=1;exitDx=0;exitDy=0;" parent="s93bzkk8fJkEyXmZJDAm-113" source="s93bzkk8fJkEyXmZJDAm-6" target="s93bzkk8fJkEyXmZJDAm-86" edge="1">
          <mxGeometry width="50" height="50" relative="1" as="geometry">
            <mxPoint x="860" y="660" as="sourcePoint" />
            <mxPoint x="970" y="780" as="targetPoint" />
          </mxGeometry>
        </mxCell>
        <mxCell id="s93bzkk8fJkEyXmZJDAm-91" value="" style="endArrow=none;html=1;rounded=0;entryX=0.5;entryY=0;entryDx=0;entryDy=0;exitX=0.75;exitY=1;exitDx=0;exitDy=0;" parent="s93bzkk8fJkEyXmZJDAm-113" source="s93bzkk8fJkEyXmZJDAm-6" target="s93bzkk8fJkEyXmZJDAm-90" edge="1">
          <mxGeometry width="50" height="50" relative="1" as="geometry">
            <mxPoint x="880" y="640" as="sourcePoint" />
            <mxPoint x="900" y="760" as="targetPoint" />
          </mxGeometry>
        </mxCell>
        <mxCell id="s93bzkk8fJkEyXmZJDAm-93" value="" style="endArrow=none;html=1;rounded=0;entryX=0;entryY=0;entryDx=0;entryDy=0;exitX=1;exitY=1;exitDx=0;exitDy=0;" parent="s93bzkk8fJkEyXmZJDAm-113" source="s93bzkk8fJkEyXmZJDAm-6" target="s93bzkk8fJkEyXmZJDAm-92" edge="1">
          <mxGeometry width="50" height="50" relative="1" as="geometry">
            <mxPoint x="940" y="640" as="sourcePoint" />
            <mxPoint x="1010" y="760" as="targetPoint" />
          </mxGeometry>
        </mxCell>
        <mxCell id="s93bzkk8fJkEyXmZJDAm-74" value="" style="endArrow=none;html=1;rounded=0;entryX=0.5;entryY=0;entryDx=0;entryDy=0;exitX=0.5;exitY=1;exitDx=0;exitDy=0;" parent="s93bzkk8fJkEyXmZJDAm-113" source="s93bzkk8fJkEyXmZJDAm-1" target="s93bzkk8fJkEyXmZJDAm-29" edge="1">
          <mxGeometry width="50" height="50" relative="1" as="geometry">
            <mxPoint x="580" y="640" as="sourcePoint" />
            <mxPoint x="500" y="760" as="targetPoint" />
          </mxGeometry>
        </mxCell>
        <mxCell id="s93bzkk8fJkEyXmZJDAm-75" value="" style="endArrow=none;html=1;rounded=0;entryX=0.5;entryY=0;entryDx=0;entryDy=0;exitX=0.25;exitY=1;exitDx=0;exitDy=0;" parent="s93bzkk8fJkEyXmZJDAm-113" source="s93bzkk8fJkEyXmZJDAm-1" target="s93bzkk8fJkEyXmZJDAm-65" edge="1">
          <mxGeometry width="50" height="50" relative="1" as="geometry">
            <mxPoint x="250" y="650" as="sourcePoint" />
            <mxPoint x="170" y="770" as="targetPoint" />
          </mxGeometry>
        </mxCell>
        <mxCell id="s93bzkk8fJkEyXmZJDAm-76" value="" style="endArrow=none;html=1;rounded=0;entryX=1;entryY=0;entryDx=0;entryDy=0;exitX=0;exitY=1;exitDx=0;exitDy=0;" parent="s93bzkk8fJkEyXmZJDAm-113" source="s93bzkk8fJkEyXmZJDAm-1" target="s93bzkk8fJkEyXmZJDAm-70" edge="1">
          <mxGeometry width="50" height="50" relative="1" as="geometry">
            <mxPoint x="260" y="660" as="sourcePoint" />
            <mxPoint x="180" y="780" as="targetPoint" />
          </mxGeometry>
        </mxCell>
        <mxCell id="s93bzkk8fJkEyXmZJDAm-77" value="" style="endArrow=none;html=1;rounded=0;entryX=1;entryY=0.5;entryDx=0;entryDy=0;exitX=0;exitY=0.75;exitDx=0;exitDy=0;" parent="s93bzkk8fJkEyXmZJDAm-113" source="s93bzkk8fJkEyXmZJDAm-1" target="s93bzkk8fJkEyXmZJDAm-72" edge="1">
          <mxGeometry width="50" height="50" relative="1" as="geometry">
            <mxPoint x="270" y="670" as="sourcePoint" />
            <mxPoint x="190" y="790" as="targetPoint" />
          </mxGeometry>
        </mxCell>
        <mxCell id="s93bzkk8fJkEyXmZJDAm-78" value="" style="endArrow=none;html=1;rounded=0;entryX=0.5;entryY=0;entryDx=0;entryDy=0;exitX=0.75;exitY=1;exitDx=0;exitDy=0;" parent="s93bzkk8fJkEyXmZJDAm-113" source="s93bzkk8fJkEyXmZJDAm-1" target="s93bzkk8fJkEyXmZJDAm-68" edge="1">
          <mxGeometry width="50" height="50" relative="1" as="geometry">
            <mxPoint x="280" y="680" as="sourcePoint" />
            <mxPoint x="200" y="800" as="targetPoint" />
          </mxGeometry>
        </mxCell>
        <mxCell id="s93bzkk8fJkEyXmZJDAm-79" value="" style="endArrow=none;html=1;rounded=0;entryX=0;entryY=0;entryDx=0;entryDy=0;exitX=1;exitY=1;exitDx=0;exitDy=0;" parent="s93bzkk8fJkEyXmZJDAm-113" source="s93bzkk8fJkEyXmZJDAm-1" target="s93bzkk8fJkEyXmZJDAm-69" edge="1">
          <mxGeometry width="50" height="50" relative="1" as="geometry">
            <mxPoint x="290" y="690" as="sourcePoint" />
            <mxPoint x="210" y="810" as="targetPoint" />
          </mxGeometry>
        </mxCell>
        <mxCell id="s93bzkk8fJkEyXmZJDAm-80" value="" style="endArrow=none;html=1;rounded=0;entryX=0;entryY=0;entryDx=0;entryDy=0;exitX=1;exitY=0.75;exitDx=0;exitDy=0;" parent="s93bzkk8fJkEyXmZJDAm-113" source="s93bzkk8fJkEyXmZJDAm-1" target="s93bzkk8fJkEyXmZJDAm-73" edge="1">
          <mxGeometry width="50" height="50" relative="1" as="geometry">
            <mxPoint x="300" y="700" as="sourcePoint" />
            <mxPoint x="220" y="820" as="targetPoint" />
          </mxGeometry>
        </mxCell>
        <mxCell id="s93bzkk8fJkEyXmZJDAm-46" value="" style="endArrow=none;html=1;rounded=0;entryX=0;entryY=0.25;entryDx=0;entryDy=0;exitX=1;exitY=0.5;exitDx=0;exitDy=0;" parent="s93bzkk8fJkEyXmZJDAm-113" source="s93bzkk8fJkEyXmZJDAm-38" target="s93bzkk8fJkEyXmZJDAm-3" edge="1">
          <mxGeometry width="50" height="50" relative="1" as="geometry">
            <mxPoint x="430" y="230" as="sourcePoint" />
            <mxPoint x="480" y="180" as="targetPoint" />
          </mxGeometry>
        </mxCell>
        <mxCell id="s93bzkk8fJkEyXmZJDAm-47" value="" style="endArrow=none;html=1;rounded=0;entryX=0;entryY=0;entryDx=0;entryDy=0;exitX=1;exitY=0.5;exitDx=0;exitDy=0;" parent="s93bzkk8fJkEyXmZJDAm-113" source="s93bzkk8fJkEyXmZJDAm-37" target="s93bzkk8fJkEyXmZJDAm-3" edge="1">
          <mxGeometry width="50" height="50" relative="1" as="geometry">
            <mxPoint x="490" y="190" as="sourcePoint" />
            <mxPoint x="700" y="230" as="targetPoint" />
          </mxGeometry>
        </mxCell>
        <mxCell id="s93bzkk8fJkEyXmZJDAm-49" value="" style="endArrow=none;html=1;rounded=0;entryX=0;entryY=0;entryDx=0;entryDy=0;exitX=1;exitY=1;exitDx=0;exitDy=0;" parent="s93bzkk8fJkEyXmZJDAm-113" source="s93bzkk8fJkEyXmZJDAm-36" target="s93bzkk8fJkEyXmZJDAm-3" edge="1">
          <mxGeometry width="50" height="50" relative="1" as="geometry">
            <mxPoint x="550" y="140" as="sourcePoint" />
            <mxPoint x="710" y="225" as="targetPoint" />
          </mxGeometry>
        </mxCell>
        <mxCell id="s93bzkk8fJkEyXmZJDAm-50" value="" style="endArrow=none;html=1;rounded=0;entryX=0.25;entryY=0;entryDx=0;entryDy=0;exitX=0.5;exitY=1;exitDx=0;exitDy=0;" parent="s93bzkk8fJkEyXmZJDAm-113" source="s93bzkk8fJkEyXmZJDAm-28" target="s93bzkk8fJkEyXmZJDAm-3" edge="1">
          <mxGeometry width="50" height="50" relative="1" as="geometry">
            <mxPoint x="580.48" y="110.41" as="sourcePoint" />
            <mxPoint x="744.48" y="237.41000000000003" as="targetPoint" />
          </mxGeometry>
        </mxCell>
        <mxCell id="s93bzkk8fJkEyXmZJDAm-52" value="" style="endArrow=none;html=1;rounded=0;entryX=0.5;entryY=0;entryDx=0;entryDy=0;exitX=0.5;exitY=1;exitDx=0;exitDy=0;" parent="s93bzkk8fJkEyXmZJDAm-113" source="s93bzkk8fJkEyXmZJDAm-34" target="s93bzkk8fJkEyXmZJDAm-3" edge="1">
          <mxGeometry width="50" height="50" relative="1" as="geometry">
            <mxPoint x="690" y="90" as="sourcePoint" />
            <mxPoint x="780" y="240" as="targetPoint" />
          </mxGeometry>
        </mxCell>
        <mxCell id="s93bzkk8fJkEyXmZJDAm-53" value="" style="endArrow=none;html=1;rounded=0;entryX=0.75;entryY=0;entryDx=0;entryDy=0;exitX=0.5;exitY=1;exitDx=0;exitDy=0;" parent="s93bzkk8fJkEyXmZJDAm-113" source="s93bzkk8fJkEyXmZJDAm-41" target="s93bzkk8fJkEyXmZJDAm-3" edge="1">
          <mxGeometry width="50" height="50" relative="1" as="geometry">
            <mxPoint x="700" y="100" as="sourcePoint" />
            <mxPoint x="790" y="250" as="targetPoint" />
          </mxGeometry>
        </mxCell>
        <mxCell id="s93bzkk8fJkEyXmZJDAm-54" value="" style="endArrow=none;html=1;rounded=0;entryX=1;entryY=0;entryDx=0;entryDy=0;exitX=0;exitY=1;exitDx=0;exitDy=0;" parent="s93bzkk8fJkEyXmZJDAm-113" source="s93bzkk8fJkEyXmZJDAm-42" target="s93bzkk8fJkEyXmZJDAm-3" edge="1">
          <mxGeometry width="50" height="50" relative="1" as="geometry">
            <mxPoint x="710" y="110" as="sourcePoint" />
            <mxPoint x="800" y="260" as="targetPoint" />
          </mxGeometry>
        </mxCell>
        <mxCell id="s93bzkk8fJkEyXmZJDAm-55" value="" style="endArrow=none;html=1;rounded=0;exitX=0;exitY=0.5;exitDx=0;exitDy=0;" parent="s93bzkk8fJkEyXmZJDAm-113" source="s93bzkk8fJkEyXmZJDAm-40" edge="1">
          <mxGeometry width="50" height="50" relative="1" as="geometry">
            <mxPoint x="720" y="120" as="sourcePoint" />
            <mxPoint x="800" y="250" as="targetPoint" />
          </mxGeometry>
        </mxCell>
        <mxCell id="s93bzkk8fJkEyXmZJDAm-56" value="" style="endArrow=none;html=1;rounded=0;entryX=1;entryY=0.25;entryDx=0;entryDy=0;exitX=0;exitY=0.5;exitDx=0;exitDy=0;" parent="s93bzkk8fJkEyXmZJDAm-113" source="s93bzkk8fJkEyXmZJDAm-39" target="s93bzkk8fJkEyXmZJDAm-3" edge="1">
          <mxGeometry width="50" height="50" relative="1" as="geometry">
            <mxPoint x="730" y="130" as="sourcePoint" />
            <mxPoint x="820" y="280" as="targetPoint" />
          </mxGeometry>
        </mxCell>
        <mxCell id="s93bzkk8fJkEyXmZJDAm-1" value="customers" style="rounded=0;whiteSpace=wrap;html=1;fillColor=#e1d5e7;strokeColor=#9673a6;shadow=1;horizontal=1;fontSize=18;fontStyle=1" parent="s93bzkk8fJkEyXmZJDAm-113" vertex="1">
          <mxGeometry x="520" y="570" width="120" height="60" as="geometry" />
        </mxCell>
        <mxCell id="s93bzkk8fJkEyXmZJDAm-3" value="vehicles" style="rounded=0;whiteSpace=wrap;html=1;fillColor=#e1d5e7;strokeColor=#9673a6;shadow=1;horizontal=1;fontSize=18;fontStyle=1" parent="s93bzkk8fJkEyXmZJDAm-113" vertex="1">
          <mxGeometry x="680" y="250" width="120" height="60" as="geometry" />
        </mxCell>
        <mxCell id="s93bzkk8fJkEyXmZJDAm-4" value="types" style="rounded=0;whiteSpace=wrap;html=1;fillColor=#e1d5e7;strokeColor=#9673a6;shadow=1;horizontal=1;fontSize=18;fontStyle=1" parent="s93bzkk8fJkEyXmZJDAm-113" vertex="1">
          <mxGeometry x="200" y="570" width="120" height="60" as="geometry" />
        </mxCell>
        <mxCell id="s93bzkk8fJkEyXmZJDAm-5" value="ticket" style="rounded=0;whiteSpace=wrap;html=1;fillColor=#e1d5e7;strokeColor=#9673a6;shadow=1;horizontal=1;fontSize=18;fontStyle=1" parent="s93bzkk8fJkEyXmZJDAm-113" vertex="1">
          <mxGeometry x="1160" y="570" width="120" height="60" as="geometry" />
        </mxCell>
        <mxCell id="s93bzkk8fJkEyXmZJDAm-6" value="parking" style="rounded=0;whiteSpace=wrap;html=1;fillColor=#e1d5e7;strokeColor=#9673a6;shadow=1;horizontal=1;fontSize=18;fontStyle=1" parent="s93bzkk8fJkEyXmZJDAm-113" vertex="1">
          <mxGeometry x="840" y="570" width="120" height="60" as="geometry" />
        </mxCell>
        <mxCell id="s93bzkk8fJkEyXmZJDAm-7" value="vehicle_type" style="rhombus;whiteSpace=wrap;html=1;fillColor=#fff2cc;strokeColor=#d6b656;shadow=1;" parent="s93bzkk8fJkEyXmZJDAm-113" vertex="1">
          <mxGeometry x="210" y="410" width="100" height="60" as="geometry" />
        </mxCell>
        <mxCell id="s93bzkk8fJkEyXmZJDAm-15" value="location" style="rhombus;whiteSpace=wrap;html=1;fillColor=#fff2cc;strokeColor=#d6b656;shadow=1;" parent="s93bzkk8fJkEyXmZJDAm-113" vertex="1">
          <mxGeometry x="850" y="410" width="100" height="60" as="geometry" />
        </mxCell>
        <mxCell id="s93bzkk8fJkEyXmZJDAm-16" value="has" style="rhombus;whiteSpace=wrap;html=1;fillColor=#fff2cc;strokeColor=#d6b656;shadow=1;" parent="s93bzkk8fJkEyXmZJDAm-113" vertex="1">
          <mxGeometry x="530" y="410" width="100" height="60" as="geometry" />
        </mxCell>
        <mxCell id="s93bzkk8fJkEyXmZJDAm-17" value="has" style="rhombus;whiteSpace=wrap;html=1;fillColor=#fff2cc;strokeColor=#d6b656;shadow=1;" parent="s93bzkk8fJkEyXmZJDAm-113" vertex="1">
          <mxGeometry x="1170" y="410" width="100" height="60" as="geometry" />
        </mxCell>
        <mxCell id="s93bzkk8fJkEyXmZJDAm-25" value="&lt;u&gt;&lt;font style=&quot;font-size: 16px;&quot;&gt;&lt;b&gt;id&lt;/b&gt;&lt;/font&gt;&lt;/u&gt;" style="ellipse;whiteSpace=wrap;html=1;fillColor=#d5e8d4;strokeColor=#82b366;shadow=1;" parent="s93bzkk8fJkEyXmZJDAm-113" vertex="1">
          <mxGeometry x="100" y="750" width="100" height="50" as="geometry" />
        </mxCell>
        <mxCell id="s93bzkk8fJkEyXmZJDAm-28" value="&lt;font style=&quot;font-size: 16px;&quot;&gt;&lt;span style=&quot;font-weight: normal;&quot;&gt;create_at&lt;/span&gt;&lt;/font&gt;" style="ellipse;whiteSpace=wrap;html=1;fillColor=#d5e8d4;strokeColor=#82b366;fontStyle=1;shadow=1;" parent="s93bzkk8fJkEyXmZJDAm-113" vertex="1">
          <mxGeometry x="620" y="50" width="100" height="50" as="geometry" />
        </mxCell>
        <mxCell id="s93bzkk8fJkEyXmZJDAm-29" value="&lt;u&gt;&lt;font style=&quot;font-size: 16px;&quot;&gt;&lt;b&gt;id&lt;/b&gt;&lt;/font&gt;&lt;/u&gt;" style="ellipse;whiteSpace=wrap;html=1;fillColor=#d5e8d4;strokeColor=#82b366;shadow=1;" parent="s93bzkk8fJkEyXmZJDAm-113" vertex="1">
          <mxGeometry x="530" y="790" width="100" height="50" as="geometry" />
        </mxCell>
        <mxCell id="s93bzkk8fJkEyXmZJDAm-30" value="&lt;u&gt;&lt;font style=&quot;font-size: 16px;&quot;&gt;&lt;b&gt;id&lt;/b&gt;&lt;/font&gt;&lt;/u&gt;" style="ellipse;whiteSpace=wrap;html=1;fillColor=#d5e8d4;strokeColor=#82b366;shadow=1;" parent="s93bzkk8fJkEyXmZJDAm-113" vertex="1">
          <mxGeometry x="880" y="800" width="100" height="50" as="geometry" />
        </mxCell>
        <mxCell id="s93bzkk8fJkEyXmZJDAm-31" value="&lt;u&gt;&lt;font style=&quot;font-size: 16px;&quot;&gt;&lt;b&gt;id&lt;/b&gt;&lt;/font&gt;&lt;/u&gt;" style="ellipse;whiteSpace=wrap;html=1;fillColor=#d5e8d4;strokeColor=#82b366;shadow=1;" parent="s93bzkk8fJkEyXmZJDAm-113" vertex="1">
          <mxGeometry x="1180" y="790" width="90" height="50" as="geometry" />
        </mxCell>
        <mxCell id="s93bzkk8fJkEyXmZJDAm-34" value="&lt;u&gt;&lt;font style=&quot;font-size: 16px;&quot;&gt;&lt;b&gt;id&lt;/b&gt;&lt;/font&gt;&lt;/u&gt;" style="ellipse;whiteSpace=wrap;html=1;fillColor=#d5e8d4;strokeColor=#82b366;shadow=1;" parent="s93bzkk8fJkEyXmZJDAm-113" vertex="1">
          <mxGeometry x="690" width="100" height="50" as="geometry" />
        </mxCell>
        <mxCell id="s93bzkk8fJkEyXmZJDAm-36" value="&lt;font style=&quot;font-size: 16px;&quot;&gt;&lt;span style=&quot;font-weight: normal;&quot;&gt;update_at&lt;/span&gt;&lt;/font&gt;" style="ellipse;whiteSpace=wrap;html=1;fillColor=#d5e8d4;strokeColor=#82b366;fontStyle=1;shadow=1;" parent="s93bzkk8fJkEyXmZJDAm-113" vertex="1">
          <mxGeometry x="510" y="40" width="100" height="50" as="geometry" />
        </mxCell>
        <mxCell id="s93bzkk8fJkEyXmZJDAm-37" value="&lt;font style=&quot;font-size: 16px;&quot;&gt;&lt;span style=&quot;font-weight: normal;&quot;&gt;color&lt;/span&gt;&lt;/font&gt;" style="ellipse;whiteSpace=wrap;html=1;fillColor=#d5e8d4;strokeColor=#82b366;fontStyle=1;shadow=1;" parent="s93bzkk8fJkEyXmZJDAm-113" vertex="1">
          <mxGeometry x="480" y="100" width="100" height="50" as="geometry" />
        </mxCell>
        <mxCell id="s93bzkk8fJkEyXmZJDAm-38" value="&lt;font style=&quot;font-size: 16px;&quot;&gt;&lt;span style=&quot;font-weight: normal;&quot;&gt;img&lt;/span&gt;&lt;/font&gt;" style="ellipse;whiteSpace=wrap;html=1;fillColor=#d5e8d4;strokeColor=#82b366;fontStyle=1;shadow=1;" parent="s93bzkk8fJkEyXmZJDAm-113" vertex="1">
          <mxGeometry x="440" y="170" width="100" height="50" as="geometry" />
        </mxCell>
        <mxCell id="s93bzkk8fJkEyXmZJDAm-39" value="&lt;font style=&quot;font-size: 16px;&quot;&gt;&lt;span style=&quot;font-weight: normal;&quot;&gt;license_plate&lt;/span&gt;&lt;/font&gt;" style="ellipse;whiteSpace=wrap;html=1;fillColor=#d5e8d4;strokeColor=#82b366;fontStyle=1;shadow=1;" parent="s93bzkk8fJkEyXmZJDAm-113" vertex="1">
          <mxGeometry x="940" y="170" width="100" height="50" as="geometry" />
        </mxCell>
        <mxCell id="s93bzkk8fJkEyXmZJDAm-40" value="&lt;font style=&quot;font-size: 16px;&quot;&gt;&lt;span style=&quot;font-weight: normal;&quot;&gt;customer_id&lt;/span&gt;&lt;/font&gt;" style="ellipse;whiteSpace=wrap;html=1;fillColor=#d5e8d4;strokeColor=#82b366;fontStyle=1;shadow=1;" parent="s93bzkk8fJkEyXmZJDAm-113" vertex="1">
          <mxGeometry x="910" y="100" width="100" height="50" as="geometry" />
        </mxCell>
        <mxCell id="s93bzkk8fJkEyXmZJDAm-41" value="&lt;font style=&quot;font-size: 16px;&quot;&gt;&lt;span style=&quot;font-weight: normal;&quot;&gt;parking_id&lt;/span&gt;&lt;/font&gt;" style="ellipse;whiteSpace=wrap;html=1;fillColor=#d5e8d4;strokeColor=#82b366;fontStyle=1;shadow=1;" parent="s93bzkk8fJkEyXmZJDAm-113" vertex="1">
          <mxGeometry x="770" y="50" width="100" height="50" as="geometry" />
        </mxCell>
        <mxCell id="s93bzkk8fJkEyXmZJDAm-42" value="&lt;font style=&quot;font-size: 16px;&quot;&gt;&lt;span style=&quot;font-weight: normal;&quot;&gt;type_id&lt;/span&gt;&lt;/font&gt;" style="ellipse;whiteSpace=wrap;html=1;fillColor=#d5e8d4;strokeColor=#82b366;fontStyle=1;shadow=1;" parent="s93bzkk8fJkEyXmZJDAm-113" vertex="1">
          <mxGeometry x="880" y="30" width="100" height="50" as="geometry" />
        </mxCell>
        <mxCell id="s93bzkk8fJkEyXmZJDAm-57" value="" style="endArrow=none;html=1;rounded=0;entryX=0.5;entryY=0;entryDx=0;entryDy=0;exitX=0.25;exitY=1;exitDx=0;exitDy=0;" parent="s93bzkk8fJkEyXmZJDAm-113" source="s93bzkk8fJkEyXmZJDAm-4" target="s93bzkk8fJkEyXmZJDAm-25" edge="1">
          <mxGeometry width="50" height="50" relative="1" as="geometry">
            <mxPoint x="270" y="640" as="sourcePoint" />
            <mxPoint x="380" y="810" as="targetPoint" />
          </mxGeometry>
        </mxCell>
        <mxCell id="s93bzkk8fJkEyXmZJDAm-61" value="&lt;font style=&quot;font-size: 16px;&quot;&gt;&lt;span style=&quot;font-weight: normal;&quot;&gt;cost&lt;/span&gt;&lt;/font&gt;" style="ellipse;whiteSpace=wrap;html=1;fillColor=#d5e8d4;strokeColor=#82b366;fontStyle=1;shadow=1;" parent="s93bzkk8fJkEyXmZJDAm-113" vertex="1">
          <mxGeometry x="20" y="560" width="100" height="50" as="geometry" />
        </mxCell>
        <mxCell id="s93bzkk8fJkEyXmZJDAm-62" value="&lt;font style=&quot;font-size: 16px;&quot;&gt;&lt;span style=&quot;font-weight: normal;&quot;&gt;create_at&lt;/span&gt;&lt;/font&gt;" style="ellipse;whiteSpace=wrap;html=1;fillColor=#d5e8d4;strokeColor=#82b366;fontStyle=1;shadow=1;" parent="s93bzkk8fJkEyXmZJDAm-113" vertex="1">
          <mxGeometry x="40" y="690" width="100" height="50" as="geometry" />
        </mxCell>
        <mxCell id="s93bzkk8fJkEyXmZJDAm-63" value="&lt;font style=&quot;font-size: 16px;&quot;&gt;&lt;span style=&quot;font-weight: normal;&quot;&gt;update_at&lt;/span&gt;&lt;/font&gt;" style="ellipse;whiteSpace=wrap;html=1;fillColor=#d5e8d4;strokeColor=#82b366;fontStyle=1;shadow=1;" parent="s93bzkk8fJkEyXmZJDAm-113" vertex="1">
          <mxGeometry y="630" width="100" height="50" as="geometry" />
        </mxCell>
        <mxCell id="s93bzkk8fJkEyXmZJDAm-64" value="&lt;font style=&quot;font-size: 16px;&quot;&gt;&lt;span style=&quot;font-weight: normal;&quot;&gt;title&lt;/span&gt;&lt;/font&gt;" style="ellipse;whiteSpace=wrap;html=1;fillColor=#d5e8d4;strokeColor=#82b366;fontStyle=1;shadow=1;" parent="s93bzkk8fJkEyXmZJDAm-113" vertex="1">
          <mxGeometry x="210" y="760" width="100" height="50" as="geometry" />
        </mxCell>
        <mxCell id="s93bzkk8fJkEyXmZJDAm-65" value="&lt;font style=&quot;font-size: 16px;&quot;&gt;&lt;span style=&quot;font-weight: normal;&quot;&gt;create_at&lt;/span&gt;&lt;/font&gt;" style="ellipse;whiteSpace=wrap;html=1;fillColor=#d5e8d4;strokeColor=#82b366;fontStyle=1;shadow=1;" parent="s93bzkk8fJkEyXmZJDAm-113" vertex="1">
          <mxGeometry x="430" y="770" width="100" height="50" as="geometry" />
        </mxCell>
        <mxCell id="s93bzkk8fJkEyXmZJDAm-68" value="&lt;font style=&quot;font-size: 16px;&quot;&gt;&lt;span style=&quot;font-weight: normal;&quot;&gt;update_at&lt;/span&gt;&lt;/font&gt;" style="ellipse;whiteSpace=wrap;html=1;fillColor=#d5e8d4;strokeColor=#82b366;fontStyle=1;shadow=1;" parent="s93bzkk8fJkEyXmZJDAm-113" vertex="1">
          <mxGeometry x="630" y="770" width="100" height="50" as="geometry" />
        </mxCell>
        <mxCell id="s93bzkk8fJkEyXmZJDAm-69" value="&lt;font style=&quot;font-size: 16px;&quot;&gt;&lt;span style=&quot;font-weight: normal;&quot;&gt;address&lt;/span&gt;&lt;/font&gt;" style="ellipse;whiteSpace=wrap;html=1;fillColor=#d5e8d4;strokeColor=#82b366;fontStyle=1;shadow=1;" parent="s93bzkk8fJkEyXmZJDAm-113" vertex="1">
          <mxGeometry x="700" y="730" width="100" height="50" as="geometry" />
        </mxCell>
        <mxCell id="s93bzkk8fJkEyXmZJDAm-70" value="&lt;span style=&quot;font-weight: 400;&quot;&gt;&lt;font style=&quot;font-size: 13px;&quot;&gt;customer_name&lt;/font&gt;&lt;/span&gt;" style="ellipse;whiteSpace=wrap;html=1;fillColor=#d5e8d4;strokeColor=#82b366;fontStyle=1;shadow=1;" parent="s93bzkk8fJkEyXmZJDAm-113" vertex="1">
          <mxGeometry x="360" y="720" width="100" height="50" as="geometry" />
        </mxCell>
        <mxCell id="s93bzkk8fJkEyXmZJDAm-72" value="&lt;span style=&quot;font-weight: 400;&quot;&gt;&lt;font&gt;phone_number&lt;/font&gt;&lt;/span&gt;" style="ellipse;whiteSpace=wrap;html=1;fillColor=#d5e8d4;strokeColor=#82b366;fontStyle=1;shadow=1;" parent="s93bzkk8fJkEyXmZJDAm-113" vertex="1">
          <mxGeometry x="340" y="660" width="100" height="50" as="geometry" />
        </mxCell>
        <mxCell id="s93bzkk8fJkEyXmZJDAm-73" value="&lt;span style=&quot;font-size: 16px; font-weight: 400;&quot;&gt;remain&lt;/span&gt;" style="ellipse;whiteSpace=wrap;html=1;fillColor=#d5e8d4;strokeColor=#82b366;fontStyle=1;shadow=1;" parent="s93bzkk8fJkEyXmZJDAm-113" vertex="1">
          <mxGeometry x="710" y="670" width="100" height="50" as="geometry" />
        </mxCell>
        <mxCell id="s93bzkk8fJkEyXmZJDAm-82" value="" style="endArrow=none;html=1;rounded=0;entryX=1;entryY=0;entryDx=0;entryDy=0;exitX=0;exitY=1;exitDx=0;exitDy=0;" parent="s93bzkk8fJkEyXmZJDAm-113" source="s93bzkk8fJkEyXmZJDAm-4" target="s93bzkk8fJkEyXmZJDAm-62" edge="1">
          <mxGeometry width="50" height="50" relative="1" as="geometry">
            <mxPoint x="320" y="720" as="sourcePoint" />
            <mxPoint x="240" y="840" as="targetPoint" />
          </mxGeometry>
        </mxCell>
        <mxCell id="s93bzkk8fJkEyXmZJDAm-83" value="" style="endArrow=none;html=1;rounded=0;entryX=1;entryY=0.5;entryDx=0;entryDy=0;exitX=0;exitY=0.5;exitDx=0;exitDy=0;" parent="s93bzkk8fJkEyXmZJDAm-113" source="s93bzkk8fJkEyXmZJDAm-4" target="s93bzkk8fJkEyXmZJDAm-63" edge="1">
          <mxGeometry width="50" height="50" relative="1" as="geometry">
            <mxPoint x="330" y="730" as="sourcePoint" />
            <mxPoint x="250" y="850" as="targetPoint" />
          </mxGeometry>
        </mxCell>
        <mxCell id="s93bzkk8fJkEyXmZJDAm-84" value="" style="endArrow=none;html=1;rounded=0;entryX=1;entryY=0.5;entryDx=0;entryDy=0;exitX=0;exitY=0.25;exitDx=0;exitDy=0;" parent="s93bzkk8fJkEyXmZJDAm-113" source="s93bzkk8fJkEyXmZJDAm-4" target="s93bzkk8fJkEyXmZJDAm-61" edge="1">
          <mxGeometry width="50" height="50" relative="1" as="geometry">
            <mxPoint x="340" y="740" as="sourcePoint" />
            <mxPoint x="260" y="860" as="targetPoint" />
          </mxGeometry>
        </mxCell>
        <mxCell id="s93bzkk8fJkEyXmZJDAm-86" value="&lt;span style=&quot;font-size: 16px; font-weight: 400;&quot;&gt;location&lt;/span&gt;" style="ellipse;whiteSpace=wrap;html=1;fillColor=#d5e8d4;strokeColor=#82b366;fontStyle=1;shadow=1;" parent="s93bzkk8fJkEyXmZJDAm-113" vertex="1">
          <mxGeometry x="810" y="750" width="100" height="50" as="geometry" />
        </mxCell>
        <mxCell id="s93bzkk8fJkEyXmZJDAm-90" value="&lt;span style=&quot;font-size: 16px; font-weight: 400;&quot;&gt;max_slot&lt;/span&gt;" style="ellipse;whiteSpace=wrap;html=1;fillColor=#d5e8d4;strokeColor=#82b366;fontStyle=1;shadow=1;" parent="s93bzkk8fJkEyXmZJDAm-113" vertex="1">
          <mxGeometry x="950" y="750" width="100" height="50" as="geometry" />
        </mxCell>
        <mxCell id="s93bzkk8fJkEyXmZJDAm-92" value="&lt;span style=&quot;font-weight: 400;&quot;&gt;&lt;font style=&quot;font-size: 15px;&quot;&gt;parking_name&lt;/font&gt;&lt;/span&gt;" style="ellipse;whiteSpace=wrap;html=1;fillColor=#d5e8d4;strokeColor=#82b366;fontStyle=1;shadow=1;" parent="s93bzkk8fJkEyXmZJDAm-113" vertex="1">
          <mxGeometry x="1020" y="700" width="100" height="50" as="geometry" />
        </mxCell>
        <mxCell id="s93bzkk8fJkEyXmZJDAm-95" value="&lt;font style=&quot;font-size: 16px;&quot;&gt;&lt;span style=&quot;font-weight: normal;&quot;&gt;create_at&lt;/span&gt;&lt;/font&gt;" style="ellipse;whiteSpace=wrap;html=1;fillColor=#d5e8d4;strokeColor=#82b366;fontStyle=1;shadow=1;" parent="s93bzkk8fJkEyXmZJDAm-113" vertex="1">
          <mxGeometry x="1260" y="740" width="100" height="50" as="geometry" />
        </mxCell>
        <mxCell id="s93bzkk8fJkEyXmZJDAm-98" value="&lt;font style=&quot;font-size: 16px;&quot;&gt;&lt;span style=&quot;font-weight: normal;&quot;&gt;update_at&lt;/span&gt;&lt;/font&gt;" style="ellipse;whiteSpace=wrap;html=1;fillColor=#d5e8d4;strokeColor=#82b366;fontStyle=1;shadow=1;" parent="s93bzkk8fJkEyXmZJDAm-113" vertex="1">
          <mxGeometry x="1330" y="680" width="100" height="50" as="geometry" />
        </mxCell>
        <mxCell id="s93bzkk8fJkEyXmZJDAm-99" value="&lt;span style=&quot;font-size: 16px; font-weight: 400;&quot;&gt;total&lt;/span&gt;" style="ellipse;whiteSpace=wrap;html=1;fillColor=#d5e8d4;strokeColor=#82b366;fontStyle=1;shadow=1;" parent="s93bzkk8fJkEyXmZJDAm-113" vertex="1">
          <mxGeometry x="1110" y="740" width="100" height="50" as="geometry" />
        </mxCell>
        <mxCell id="s93bzkk8fJkEyXmZJDAm-105" value="&lt;span style=&quot;font-size: 16px; font-weight: 400;&quot;&gt;vehicle_id&lt;/span&gt;" style="ellipse;whiteSpace=wrap;html=1;fillColor=#d5e8d4;strokeColor=#82b366;fontStyle=1;shadow=1;" parent="s93bzkk8fJkEyXmZJDAm-113" vertex="1">
          <mxGeometry x="1370" y="620" width="100" height="50" as="geometry" />
        </mxCell>
        <mxCell id="s93bzkk8fJkEyXmZJDAm-106" value="&lt;span style=&quot;font-size: 16px; font-weight: 400;&quot;&gt;issue_date&lt;/span&gt;" style="ellipse;whiteSpace=wrap;html=1;fillColor=#d5e8d4;strokeColor=#82b366;fontStyle=1;shadow=1;" parent="s93bzkk8fJkEyXmZJDAm-113" vertex="1">
          <mxGeometry x="1390" y="560" width="100" height="50" as="geometry" />
        </mxCell>
      </root>
    </mxGraphModel>
  </diagram>
</mxfile>
